<?xml version="1.0" encoding="UTF-8" standalone="no"?>
<!-- Created with Inkscape (http://www.inkscape.org/) -->

<svg
   xmlns:dc="http://purl.org/dc/elements/1.1/"
   xmlns:cc="http://creativecommons.org/ns#"
   xmlns:rdf="http://www.w3.org/1999/02/22-rdf-syntax-ns#"
   xmlns:svg="http://www.w3.org/2000/svg"
   xmlns="http://www.w3.org/2000/svg"
   xmlns:xlink="http://www.w3.org/1999/xlink"
   xmlns:sodipodi="http://sodipodi.sourceforge.net/DTD/sodipodi-0.dtd"
   xmlns:inkscape="http://www.inkscape.org/namespaces/inkscape"
   width="200"
   height="160"
   id="svg3916"
   version="1.1"
   inkscape:version="0.48.4 r9939"
   sodipodi:docname="conetroller-icon.svg">
  <defs
     id="defs3918">
    <inkscape:perspective
       sodipodi:type="inkscape:persp3d"
       inkscape:vp_x="0 : 526.18109 : 1"
       inkscape:vp_y="0 : 1000 : 0"
       inkscape:vp_z="744.09448 : 526.18109 : 1"
       inkscape:persp3d-origin="372.04724 : 350.78739 : 1"
       id="perspective3924" />
    <inkscape:perspective
       id="perspective3852"
       inkscape:persp3d-origin="0.5 : 0.33333333 : 1"
       inkscape:vp_z="1 : 0.5 : 1"
       inkscape:vp_y="0 : 1000 : 0"
       inkscape:vp_x="0 : 0.5 : 1"
       sodipodi:type="inkscape:persp3d" />
    <linearGradient
       inkscape:collect="always"
       xlink:href="#linearGradient3649"
       id="linearGradient3826"
       gradientUnits="userSpaceOnUse"
       gradientTransform="matrix(1,0,0,1.0202334,0,-1.4234613)"
       x1="40.775471"
       y1="100.34167"
       x2="44.375881"
       y2="125.31633" />
    <linearGradient
       id="linearGradient3649">
      <stop
         style="stop-color:#e26400;stop-opacity:1;"
         offset="0"
         id="stop3651" />
      <stop
         style="stop-color:#ffb900;stop-opacity:1;"
         offset="1"
         id="stop3653" />
    </linearGradient>
    <linearGradient
       inkscape:collect="always"
       xlink:href="#linearGradient3668"
       id="linearGradient3828"
       gradientUnits="userSpaceOnUse"
       x1="64.751183"
       y1="102.28447"
       x2="93.522026"
       y2="108.98846" />
    <linearGradient
       id="linearGradient3668">
      <stop
         id="stop3670"
         offset="0"
         style="stop-color:#9b4400;stop-opacity:1;" />
      <stop
         id="stop3672"
         offset="1"
         style="stop-color:#e56300;stop-opacity:1;" />
    </linearGradient>
    <linearGradient
       inkscape:collect="always"
       xlink:href="#linearGradient3646"
       id="linearGradient3830"
       gradientUnits="userSpaceOnUse"
       x1="115.20164"
       y1="70.105232"
       x2="261.62219"
       y2="55.356419" />
    <linearGradient
       id="linearGradient3646">
      <stop
         style="stop-color:#f48200;stop-opacity:0;"
         offset="0"
         id="stop3648" />
      <stop
         id="stop3654"
         offset="0.58887613"
         style="stop-color:#f48200;stop-opacity:0.72784811;" />
      <stop
         style="stop-color:#cc5f00;stop-opacity:1;"
         offset="0.81621653"
         id="stop3658" />
      <stop
         style="stop-color:#a43d00;stop-opacity:1;"
         offset="1"
         id="stop3650" />
    </linearGradient>
    <linearGradient
       inkscape:collect="always"
       xlink:href="#linearGradient3626"
       id="linearGradient3832"
       gradientUnits="userSpaceOnUse"
       x1="44.103722"
       y1="228.59993"
       x2="278.4324"
       y2="290.6998" />
    <linearGradient
       id="linearGradient3626">
      <stop
         id="stop3628"
         offset="0"
         style="stop-color:#a1abb2;stop-opacity:1;" />
      <stop
         style="stop-color:#eaeced;stop-opacity:1;"
         offset="0.08297831"
         id="stop3630" />
      <stop
         id="stop3632"
         offset="1"
         style="stop-color:#c6ccd0;stop-opacity:1;" />
    </linearGradient>
    <linearGradient
       inkscape:collect="always"
       xlink:href="#linearGradient3702"
       id="linearGradient3834"
       gradientUnits="userSpaceOnUse"
       x1="18.875"
       y1="252.48438"
       x2="334.03125"
       y2="268.41544" />
    <linearGradient
       id="linearGradient3702">
      <stop
         style="stop-color:#7a8288;stop-opacity:1;"
         offset="0"
         id="stop3704" />
      <stop
         id="stop3710"
         offset="0.5288403"
         style="stop-color:#9fa3a7;stop-opacity:1;" />
      <stop
         style="stop-color:#7d858b;stop-opacity:1;"
         offset="1"
         id="stop3706" />
    </linearGradient>
    <linearGradient
       inkscape:collect="always"
       xlink:href="#linearGradient3712"
       id="linearGradient3836"
       gradientUnits="userSpaceOnUse"
       x1="104.88638"
       y1="12.640625"
       x2="164.75943"
       y2="27.389442" />
    <linearGradient
       id="linearGradient3712">
      <stop
         style="stop-color:#a1abb2;stop-opacity:1;"
         offset="0"
         id="stop3714" />
      <stop
         id="stop3720"
         offset="0.14824273"
         style="stop-color:#eaeced;stop-opacity:1;" />
      <stop
         style="stop-color:#c6ccd0;stop-opacity:1;"
         offset="1"
         id="stop3716" />
    </linearGradient>
    <linearGradient
       inkscape:collect="always"
       xlink:href="#linearGradient3634"
       id="linearGradient3838"
       gradientUnits="userSpaceOnUse"
       gradientTransform="matrix(0.28222223,0,0,0.28222223,-0.13983991,-0.01181449)"
       x1="107.20918"
       y1="-0.64152896"
       x2="151.34604"
       y2="12.703197" />
    <linearGradient
       id="linearGradient3634">
      <stop
         id="stop3636"
         offset="0"
         style="stop-color:#7a8288;stop-opacity:1;" />
      <stop
         style="stop-color:#9fa3a7;stop-opacity:1;"
         offset="0.07633271"
         id="stop3638" />
      <stop
         id="stop3640"
         offset="1"
         style="stop-color:#7d858b;stop-opacity:1;" />
    </linearGradient>
    <linearGradient
       inkscape:collect="always"
       xlink:href="#linearGradient3675"
       id="linearGradient3840"
       gradientUnits="userSpaceOnUse"
       x1="-113.89329"
       y1="461.92139"
       x2="412.23013"
       y2="463.26218" />
    <linearGradient
       id="linearGradient3675">
      <stop
         style="stop-color:#ffb900;stop-opacity:1;"
         offset="0"
         id="stop3677" />
      <stop
         style="stop-color:#ffd76b;stop-opacity:1;"
         offset="1"
         id="stop3679" />
    </linearGradient>
    <linearGradient
       id="linearGradient3689">
      <stop
         style="stop-color:#f68000;stop-opacity:1;"
         offset="0"
         id="stop3691" />
      <stop
         style="stop-color:#fd9800;stop-opacity:1;"
         offset="1"
         id="stop3693" />
    </linearGradient>
    <filter
       color-interpolation-filters="sRGB"
       inkscape:collect="always"
       id="filter3807">
      <feGaussianBlur
         inkscape:collect="always"
         stdDeviation="1.1354669"
         id="feGaussianBlur3809" />
    </filter>
    <linearGradient
       inkscape:collect="always"
       xlink:href="#linearGradient3675"
       id="linearGradient2876"
       gradientUnits="userSpaceOnUse"
       x1="-113.89329"
       y1="461.92139"
       x2="412.23013"
       y2="463.26218"
       gradientTransform="matrix(0.10432167,0,0,0.10438944,134.5233,751.85337)" />
    <linearGradient
       inkscape:collect="always"
       xlink:href="#linearGradient3712"
       id="linearGradient2884"
       gradientUnits="userSpaceOnUse"
       x1="104.88638"
       y1="12.640625"
       x2="164.75943"
       y2="27.389442"
       gradientTransform="matrix(0.10432167,0,0,0.10438944,134.5233,751.85337)" />
    <linearGradient
       inkscape:collect="always"
       xlink:href="#linearGradient3626"
       id="linearGradient2890"
       gradientUnits="userSpaceOnUse"
       x1="44.103722"
       y1="228.59993"
       x2="278.4324"
       y2="290.6998"
       gradientTransform="matrix(0.10432167,0,0,0.10438944,134.5233,751.85337)" />
    <linearGradient
       inkscape:collect="always"
       xlink:href="#linearGradient3668"
       id="linearGradient2896"
       gradientUnits="userSpaceOnUse"
       x1="64.751183"
       y1="102.28447"
       x2="93.522026"
       y2="108.98846"
       gradientTransform="matrix(0.10432167,0,0,0.10438944,134.5233,751.85337)" />
    <linearGradient
       inkscape:collect="always"
       xlink:href="#linearGradient3649"
       id="linearGradient2899"
       gradientUnits="userSpaceOnUse"
       gradientTransform="matrix(0.36964376,0,0,0.37736785,134.5233,751.32677)"
       x1="40.775471"
       y1="100.34167"
       x2="44.375881"
       y2="125.31633" />
    <radialGradient
       inkscape:collect="always"
       xlink:href="#linearGradient3598"
       id="radialGradient3623"
       cx="19.333134"
       cy="1023.9993"
       fx="19.333134"
       fy="1023.9993"
       r="6.6208768"
       gradientTransform="matrix(-10.73778,0,0,-11.87694,335.30749,12932.938)"
       gradientUnits="userSpaceOnUse" />
    <linearGradient
       id="linearGradient3598">
      <stop
         style="stop-color:#efb24b;stop-opacity:1;"
         offset="0"
         id="stop3600" />
      <stop
         style="stop-color:#ff6c04;stop-opacity:1;"
         offset="1"
         id="stop3602" />
    </linearGradient>
    <radialGradient
       inkscape:collect="always"
       xlink:href="#linearGradient3598"
       id="radialGradient3621"
       cx="28.666866"
       cy="1023.9993"
       fx="28.666866"
       fy="1023.9993"
       r="6.6208768"
       gradientTransform="matrix(2.6721997,0,0,2.2107419,-47.936727,-1239.7988)"
       gradientUnits="userSpaceOnUse" />
    <linearGradient
       id="linearGradient3087">
      <stop
         style="stop-color:#5785a6;stop-opacity:1;"
         offset="0"
         id="stop3089" />
      <stop
         style="stop-color:#113f4c;stop-opacity:1;"
         offset="1"
         id="stop3091" />
    </linearGradient>
    <radialGradient
       inkscape:collect="always"
       xlink:href="#linearGradient3598"
       id="radialGradient3848"
       cx="616.14069"
       cy="373.42352"
       fx="616.14069"
       fy="373.42352"
       r="122.96409"
       gradientTransform="matrix(0.28908236,0,0,0.63950211,38.788887,540.99259)"
       gradientUnits="userSpaceOnUse" />
    <linearGradient
       inkscape:collect="always"
       xlink:href="#linearGradient3646"
       id="linearGradient3962"
       gradientUnits="userSpaceOnUse"
       gradientTransform="matrix(0.10432167,0,0,0.10438944,134.5233,751.85337)"
       x1="115.20164"
       y1="70.105232"
       x2="261.62219"
       y2="55.356419" />
  </defs>
  <sodipodi:namedview
     id="base"
     pagecolor="#ffffff"
     bordercolor="#666666"
     borderopacity="1.0"
     inkscape:pageopacity="0.0"
     inkscape:pageshadow="2"
     inkscape:zoom="1.9636364"
     inkscape:cx="131.22582"
     inkscape:cy="86.405141"
     inkscape:document-units="px"
     inkscape:current-layer="layer1"
     showgrid="false"
     inkscape:window-width="1366"
     inkscape:window-height="698"
     inkscape:window-x="0"
     inkscape:window-y="23"
     inkscape:window-maximized="1" />
  <metadata
     id="metadata3921">
    <rdf:RDF>
      <cc:Work
         rdf:about="">
        <dc:format>image/svg+xml</dc:format>
        <dc:type
           rdf:resource="http://purl.org/dc/dcmitype/StillImage" />
        <dc:title />
      </cc:Work>
    </rdf:RDF>
  </metadata>
  <g
     inkscape:label="Ebene 1"
     inkscape:groupmode="layer"
     id="layer1"
     transform="translate(-52.624777,-690.7541)">
    <path
       style="fill:#cb5600;fill-opacity:1;fill-rule:evenodd;stroke:none"
       d="m 125.71119,797.51765 c 0,0 -0.91257,0.98506 -1.15396,1.78458 -0.16869,0.55903 -0.23454,1.39173 0.07,1.88952 0.22341,0.36558 0.51619,0.73477 0.94417,0.73489 18.60591,0.003 39.18226,0.0326 53.6594,0.0698 0.49013,10e-4 1.41979,-0.0844 1.80088,-0.62979 0.38847,-0.55598 0.37888,-1.79421 0.10488,-2.41444 -0.28849,-0.65313 -1.64353,-0.94474 -1.64353,-0.94474 l -53.7818,-0.48984 z"
       id="path3657"
       sodipodi:nodetypes="csssssscc"
       inkscape:connector-curvature="0" />
    <path
       style="fill:url(#linearGradient2899);fill-opacity:1;fill-rule:evenodd;stroke:none"
       d="m 132.5671,777.87544 c -0.85009,0 -1.73259,0.65533 -1.97886,1.47146 l -5.93988,19.68799 c -0.24629,0.81609 0.23874,1.47472 1.08887,1.47472 l 54.77585,0 c 0.64768,0 1.01895,-0.49963 0.83133,-1.12153 l -6.15504,-20.39107 c -0.18761,-0.62183 -0.85848,-1.12157 -1.50615,-1.12157 l -41.11612,0 z"
       id="rect2862"
       sodipodi:nodetypes="ccccccccc"
       inkscape:connector-curvature="0" />
    <path
       style="fill:url(#linearGradient2896);fill-opacity:1;fill-rule:evenodd;stroke:none"
       d="m 152.86435,737.31381 c -1.41289,-0.0121 -2.2441,0.0914 -3.07749,0.7177 -0.3804,0.28604 -0.68096,0.96563 -0.86064,1.45494 l -14.50073,47.89843 c 0,0 0.33808,2.16448 2.38949,4.13193 1.38284,1.32636 4.0055,2.30905 5.65313,2.66639 4.22869,0.91716 7.61972,1.13611 11.45481,1.07801 3.93919,-0.0612 7.87467,-0.83449 11.66231,-1.91902 5.64895,-1.61758 5.8288,-6.1563 5.8288,-6.1563 l -14.91472,-48.59004 c -0.0615,-0.20034 -0.21085,-0.34763 -0.32926,-0.45981 -0.88597,-0.84031 -2.22852,-0.81123 -3.3057,-0.82211 z"
       id="path3656"
       sodipodi:nodetypes="csccsssscssc"
       inkscape:connector-curvature="0" />
    <path
       style="fill:url(#linearGradient3962);fill-opacity:1;fill-rule:evenodd;stroke:none"
       d="m 152.86435,737.31381 c -1.41289,-0.0121 -2.2441,0.0914 -3.07749,0.7177 -0.3804,0.28604 -0.68096,0.96563 -0.86064,1.45494 l -14.50073,47.89843 c 0,0 0.63763,4.1427 5.76937,6.16205 3.55211,1.39777 7.21856,1.58326 12.92377,1.64429 6.35369,0.0681 8.94198,-0.55597 13.09492,-2.00579 1.95486,-0.6825 2.96824,-1.56992 3.89536,-2.55391 1.34074,-1.42301 1.30512,-3.44563 1.30512,-3.44563 l -14.91472,-48.59004 c -0.10081,-0.1836 -0.21085,-0.34763 -0.32926,-0.45981 -0.88597,-0.84031 -2.22852,-0.81123 -3.3057,-0.82211 z"
       id="path2825"
       sodipodi:nodetypes="csccssssccsc"
       inkscape:connector-curvature="0" />
    <path
       style="fill:url(#linearGradient2890);fill-opacity:1;fill-rule:evenodd;stroke:none"
       d="m 139.71982,769.89967 -3.31546,10.95112 c 4.02094,3.391 9.92204,5.53259 16.49911,5.53259 6.60673,0 12.52926,-2.1606 16.55129,-5.57829 l -3.3383,-10.87934 c -3.07331,2.45348 -7.83639,4.02878 -13.18366,4.02878 -5.36497,0 -10.14073,-1.5875 -13.21298,-4.05486 z"
       id="path2843"
       inkscape:connector-curvature="0" />
    <path
       style="fill:url(#linearGradient2884);fill-opacity:1;fill-rule:evenodd;stroke:none"
       d="m 158.88566,746.37614 c -1.56469,0.52531 -3.70279,0.85146 -6.06369,0.85146 -2.32248,0 -4.43114,-0.3146 -5.98871,-0.82539 l -3.49805,11.55791 c 2.35135,1.2313 5.79438,2.00948 9.63347,2.00948 3.76318,0 7.14869,-0.74516 9.49653,-1.93448 l -3.57955,-11.65898 z"
       id="path2829"
       inkscape:connector-curvature="0" />
    <path
       sodipodi:type="arc"
       style="fill:#cb5c00;fill-opacity:1;fill-rule:nonzero;stroke:none"
       id="path3746"
       sodipodi:cx="823.00073"
       sodipodi:cy="-131.18314"
       sodipodi:rx="23.045027"
       sodipodi:ry="2.639703"
       d="m 846.04576,-131.18314 a 23.045027,2.639703 0 1 1 -46.09005,0 23.045027,2.639703 0 1 1 46.09005,0 z"
       transform="matrix(0.11058093,0,0,0.15244173,61.877998,757.77644)" />
    <path
       style="fill:url(#linearGradient2876);fill-opacity:1;fill-rule:evenodd;stroke:none"
       d="m 124.62716,799.21475 c 0,0 0.17771,0.44818 0.58265,0.63402 0.34113,0.15628 1.63785,0.10118 1.63785,0.10118 0,0 35.79553,3e-5 53.30971,0 0.28674,0 0.59035,-0.005 0.85128,-0.12319 0.28111,-0.12816 0.33574,-0.43838 0.33574,-0.43838 0,0 0.13787,0.54552 -0.17762,0.88039 -0.22365,0.23748 -0.62205,0.24114 -0.94816,0.24114 -17.64854,0.005 -36.08524,0 -53.96633,0 -0.46302,0 -1.04407,0.0428 -1.35589,-0.30193 -0.42269,-0.46413 -0.26924,-0.99297 -0.26924,-0.99297 z"
       id="path3673"
       sodipodi:nodetypes="cscsscssssc"
       inkscape:connector-curvature="0" />
    <path
       style="fill:#ee6900;fill-opacity:1;fill-rule:evenodd;stroke:none;filter:url(#filter3807)"
       d="m -1.0685622,89.844467 c 0,0 -2.6240816,1.891427 -2.9827409,4.291018 -0.6066705,4.058893 3.99669631,9.690785 6.5227236,12.925265 2.7179779,3.48026 8.2640875,5.9331 12.3384335,7.63584 6.356554,2.65651 13.346515,3.63625 20.19251,4.40774 6.580717,0.74159 14.58422,0.45958 21.190625,0 6.806782,-0.47353 15.741331,-1.1023 18.920198,-1.70282 7.183589,-1.35705 12.777143,-3.47721 18.040178,-7.00047 2.243164,-1.50166 5.26718,-4.52359 6.7127,-6.80333 1.102655,-1.73901 3.160155,-5.322105 3.249415,-7.379298 0.0503,-1.158387 -2.97,-3.545551 -2.97,-3.545551 0,0 -1.592514,10.770059 -16.407373,17.128099 -8.527544,3.65973 -17.90222,4.73443 -27.166717,5.2652 -8.955078,0.51305 -20.087036,0.1568 -28.873472,-1.6474 C 21.190043,112.08243 15.817145,109.63503 9.9034209,106.60748 3.7080757,103.43575 0.53762153,95.126356 -0.71045827,91.829084 -1.6509103,89.344526 -1.0685622,89.844467 -1.0685622,89.844467 z"
       id="path3705"
       sodipodi:nodetypes="cssssssssscsssssc"
       transform="matrix(0.36964376,0,0,0.36988388,134.5233,751.85337)"
       inkscape:connector-curvature="0" />
    <path
       inkscape:connector-curvature="0"
       style="fill:url(#radialGradient3848);fill-opacity:1;stroke:none"
       d="m 248.91783,770.95862 c 0,-28.47039 -10.90116,-56.91338 -32.60904,-78.63551 l -13.51361,13.52227 c 35.97168,35.99438 35.97168,94.23214 0,130.22758 l 13.51361,13.52174 c 21.70788,-21.72211 32.60904,-50.16565 32.60904,-78.63608 z m -36.5752,0 c 0,-19.11383 -7.31195,-38.1831 -21.88601,-52.76645 l -12.63231,12.6407 c 22.13889,22.20996 22.17412,58.21025 0,80.39929 l 12.63231,12.49405 c 14.57406,-14.58445 21.88601,-33.65266 21.88601,-52.76759 z"
       id="path2830"
       sodipodi:nodetypes="cccccccccccc" />
    <path
       inkscape:connector-curvature="0"
       sodipodi:nodetypes="cccccccccccc"
       id="path2818"
       d="m 56.618998,770.95862 c 0,-28.47039 10.901155,-56.91338 32.60903,-78.63551 l 13.513652,13.52227 c -35.971665,35.99438 -35.971665,94.23214 0,130.22758 L 89.228028,849.5947 C 67.520153,827.87259 56.618998,799.42905 56.618998,770.95862 z m 36.575243,0 c 0,-19.11383 7.311889,-38.1831 21.885949,-52.76645 l 12.63236,12.6407 c -22.13889,22.20996 -22.17416,58.21025 0,80.39929 l -12.63236,12.49405 C 100.50613,809.14176 93.194241,790.07355 93.194241,770.95862 z"
       style="fill:url(#radialGradient3623);fill-opacity:1;stroke:none" />
  </g>
</svg>
